<?xml version="1.0" encoding="UTF-8"?>
<svg width="17px" height="34px" viewBox="0 0 17 34" version="1.1" xmlns="http://www.w3.org/2000/svg" xmlns:xlink="http://www.w3.org/1999/xlink">
    <!-- Generator: Sketch 46.2 (44496) - http://www.bohemiancoding.com/sketch -->
    <title>triangle-white</title>
    <desc>Created with Sketch.</desc>
    <defs>
        <path d="M-102,0 L0.170200717,0 L0.170200717,-1.64313008e-14 C0.7006382,-1.65287405e-14 1.20934996,0.210717249 1.58442347,0.585795627 L16.5842102,15.5857772 L16.5841918,15.5857956 C17.3652281,16.3668421 17.3652281,17.6331579 16.5841918,18.4142044 L1.58442347,33.4142044 L1.58442347,33.4142044 C1.20934996,33.7892828 0.7006382,34 0.170200717,34 L-102,34 L-102,34 C-103.104569,34 -104,33.1045695 -104,32 L-104,2 L-104,2 C-104,0.8954305 -103.104569,2.02906125e-16 -102,0 Z" id="path-1"></path>
    </defs>
    <g id="Page-1" stroke="none" stroke-width="1" fill="none" fill-rule="evenodd">
        <g id="triangle-white">
            <g id="Rectangle-2-Copy-5">
                <use fill="#FFFFFF" fill-rule="evenodd" xlink:href="#path-1"></use>
                <path stroke="#D9DDE2" stroke-width="1" d="M-102,0.5 C-102.828427,0.5 -103.5,1.17157288 -103.5,2 L-103.5,32 C-103.5,32.8284271 -102.828427,33.5 -102,33.5 L0.170200717,33.5 C0.568028829,33.5 0.949562652,33.3419621 1.23086735,33.0606537 L16.2306361,18.0606533 C16.8164126,17.4748692 16.8164169,16.5251259 16.2306545,15.9393283 L1.23086778,0.93934672 C0.949562652,0.658037936 0.568028829,0.5 0.170200717,0.5 L-102,0.5 Z"></path>
            </g>
        </g>
    </g>
</svg>